<?xml version="1.0" encoding="UTF-8" standalone="no"?> <svg width="25" height="25" viewBox="0 0 64 64" fill="none" xmlns="http://www.w3.org/2000/svg">
<path d="M57 6.25001H39.25V4.00001C39.2547 3.80927 39.2157 3.61998 39.136 3.44665C39.0563 3.27331 38.9379 3.12053 38.79 3.00001C38.6517 2.88788 38.4905 2.8074 38.3177 2.76421C38.1449 2.72102 37.9648 2.71617 37.79 2.75001L11.14 8.28001C10.1853 8.48295 9.32863 9.00611 8.71206 9.76273C8.09548 10.5194 7.75603 11.464 7.75 12.44V51.56C7.75603 52.536 8.09548 53.4807 8.71206 54.2373C9.32863 54.9939 10.1853 55.5171 11.14 55.72L37.75 61.22C37.9312 61.257 38.1184 61.2533 38.298 61.2092C38.4776 61.1651 38.6452 61.0817 38.7887 60.965C38.9322 60.8483 39.048 60.7012 39.1278 60.5343C39.2076 60.3675 39.2493 60.185 39.25 60V57.75H57C58.1264 57.7474 59.2058 57.2988 60.0023 56.5023C60.7987 55.7058 61.2474 54.6264 61.25 53.5V10.5C61.2474 9.37365 60.7987 8.29418 60.0023 7.49772C59.2058 6.70126 58.1264 6.25265 57 6.25001V6.25001ZM36.75 58.46L11.65 53.27C11.2564 53.1878 10.9029 52.9733 10.6481 52.6621C10.3934 52.351 10.2529 51.9621 10.25 51.56V12.44C10.2529 12.0379 10.3934 11.649 10.6481 11.3379C10.9029 11.0268 11.2564 10.8122 11.65 10.73L36.75 5.54001V58.46Z" fill="black"/>
<path d="M30 36.25C32.3472 36.25 34.25 34.3472 34.25 32C34.25 29.6528 32.3472 27.75 30 27.75C27.6528 27.75 25.75 29.6528 25.75 32C25.75 34.3472 27.6528 36.25 30 36.25Z" fill="black"/>
</svg>
